<svg xmlns="http://www.w3.org/2000/svg" viewBox="0 0 2048 2048"><g fill="#1C1A18"><path d="M1642.3,973.46h-104.84l-280.27-667.89-418.81,626.42-166.67-207.61c-19.9,30.96-39.19,61.22-58.1,90.81-32.33,50.78-65.72,103.23-101.94,158.28h-124.05c35.76-54.36,97.44-169.34,129.54-219.73,32.33-50.7,65.72-103.08,101.94-158.13l43.15-65.72,167.66,208.91L1279.68,66.16l362.62,907.3Z"/><path d="M389.88,1074.53l26.25,65.69,14.15,35.38,322.23,806.24,449.74-672.62,167.65,208.91,43.16-65.73c36.23-55.04,69.6-107.44,101.96-158.12,17.35-27.26,43.35-73.44,69.27-118.68,21.97-38.36,43.83-76.12,60.25-101.07H389.88ZM775.01,1742.42l-237.89-566.82h616.84l-378.95,566.82ZM1418.59,1232.84c-18.92,29.57-38.21,59.84-58.13,90.79l-118.83-148.03h213.46c-12.4,19.36-24.5,38.39-36.49,57.24Z"/></g></svg>
