<?xml version="1.0" encoding="UTF-8"?>
<svg id="Layer_1" data-name="Layer 1" xmlns="http://www.w3.org/2000/svg" viewBox="0 0 1485 202">
  <defs>
    <style>
      .cls-1 {
        font-size: 23.1px;
      }

      .cls-1, .cls-2 {
        font-family: NewScience-Medium, 'New Science';
        font-weight: 500;
      }

      .cls-1, .cls-2, .cls-3 {
        fill: #fafafa;
      }

      .cls-2 {
        font-size: 162px;
      }

      .cls-4 {
        letter-spacing: -.02em;
      }

      .cls-5 {
        letter-spacing: -.02em;
      }

      .cls-6 {
        letter-spacing: -.02em;
      }

      .cls-7 {
        letter-spacing: -.02em;
      }

      .cls-8 {
        letter-spacing: -.05em;
      }

      .cls-9 {
        letter-spacing: -.04em;
      }

      .cls-10 {
        letter-spacing: -.04em;
      }

      .cls-11 {
        letter-spacing: -.05em;
      }

      .cls-12 {
        letter-spacing: -.04em;
      }

      .cls-13 {
        letter-spacing: -.04em;
      }
    </style>
  </defs>
  <text class="cls-2" transform="translate(75.59 137.51) scale(.87 1)"><tspan x="0" y="0">Mar</tspan><tspan class="cls-4" x="321.6" y="0">k</tspan></text>
  <text class="cls-2" transform="translate(628.85 138.56) scale(.87 1)"><tspan x="0" y="0">Beau</tspan></text>
  <text class="cls-2" transform="translate(1173.52 139.76) scale(.87 1)"><tspan x="0" y="0">ont</tspan></text>
  <g id="_M_" data-name="&amp;quot;M&amp;quot;">
    <path class="cls-3" d="M1166.28,138.56h-14.67l-39.21-93.44-58.59,87.64-23.32-29.05c-2.78,4.33-5.48,8.57-8.13,12.7-4.52,7.1-9.2,14.44-14.26,22.14h-17.36c5-7.61,13.63-23.69,18.12-30.74,4.52-7.09,9.2-14.42,14.26-22.12l6.04-9.2,23.46,29.23,62.93-94.1,50.73,126.94Z"/>
  </g>
  <text class="cls-1" transform="translate(713.97 190.38) scale(1.03 1)"><tspan class="cls-5" x="0" y="0">EVEN</tspan><tspan class="cls-13" x="64.69" y="0">T</tspan><tspan class="cls-5" x="79.06" y="0">S </tspan><tspan class="cls-9" x="101.22" y="0">&amp;</tspan><tspan class="cls-5" x="118.58" y="0" xml:space="preserve"> MEDI</tspan><tspan class="cls-8" x="185.32" y="0">A</tspan><tspan class="cls-6" x="201.67" y="0" xml:space="preserve">  |</tspan><tspan class="cls-8" x="218.87" y="0"> </tspan><tspan class="cls-6" x="224" y="0">A</tspan><tspan class="cls-12" x="241.14" y="0">D</tspan><tspan class="cls-7" x="258.03" y="0">VENTURES | INVE</tspan><tspan class="cls-10" x="460.72" y="0">S</tspan><tspan class="cls-5" x="476.35" y="0">TMEN</tspan><tspan class="cls-11" x="547.46" y="0">T</tspan></text>
</svg>